
    
<svg version="1.1" id="ballon" xmlns="http://www.w3.org/2000/svg" xmlns:xlink="http://www.w3.org/1999/xlink" x="0px" y="0px"
	 viewBox="0 0 341.1 285.4" style="enable-background:new 0 0 341.1 285.4;" xml:space="preserve">
<style type="text/css">
	.st0{fill:#5B1C18;}
	.st1{fill:#915D6C;}
	.st2{opacity:0.2;}
	.st3{fill:#7C7C7C;}
	.st4{fill:#37112E;}
	.st5{fill:#DEA076;}
	.st6{opacity:0.3;}
	.st7{fill:#FCFCFC;}
	.st8{fill:#202A48;}
	.st9{fill:#722338;}
	.st10{opacity:0.15;}
	.st11{fill:#FD9728;}
	.st12{fill:#303030;}
	.st13{fill:#FFFFFF;}
	.st14{fill:#E8E8E8;}
</style>
<g id="ballon_x5F_all" transform="translate(-33.931 -5891.115)">
	<g id="hot_x5F_air_x5F_ballon" transform="translate(104.696 5918.56)">
    
		<g id="Group_13"  transform="translate(116.156 135.636)">
   
			<g id="Group_8" transform="translate(10.884)">
				<path id="Path_38" class="st0" d="M25.5,12.1h-1.4c-1.2,0-2.4-0.1-3.6-0.4c-3.1-0.6-6-1.6-8.7-3.1C9.1,7.1,6.5,5.4,4.1,3.6
					c-2.3-1.7-4-2.9-4-2.9C-0.2,0.5,0.3-0.1,0.5,0c0,0,1.9,1.1,4.3,2.5c2.4,1.5,5.3,3.4,7.8,4.6c2.6,1.5,5.3,2.6,8.2,3.4
					c1.1,0.3,2.2,0.5,3.4,0.5c0.9,0.1,1.4,0.1,1.4,0.1C25.7,11.4,25.7,12.1,25.5,12.1z"/>
			</g>
      
			<g id="Group_9" transform="translate(0 12.443)">
				<path id="Path_39" class="st0" d="M26.5,15.5c0,0-0.6,0-1.6-0.1s-2.4-0.3-4-0.5c-3.4-0.6-6.7-1.6-9.8-3.1
					c-3.2-1.5-5.9-3.7-8.2-6.3c-0.4-0.7-1-1.2-1.3-1.9S0.9,2.4,0.6,1.9C0.5,1.4,0.2,0.9,0,0.4C-0.1,0,0.6-0.1,0.8,0.1l0.7,1.4
					C1.8,2,2.1,2.4,2.4,3s0.9,1.1,1.3,1.7c2.3,2.4,5,4.3,8,5.7c3,1.4,6.1,2.5,9.4,3.3c1.5,0.4,2.9,0.6,3.8,0.8
					c0.5,0.1,1.1,0.2,1.6,0.2C26.8,14.7,26.7,15.5,26.5,15.5z"/>
			</g>
			<path id="Path_40" class="st1" d="M154.1,44.1c-5.6,4.8-10.1,3.4-15,1.5c-2.2-0.9-4.5-1.7-6.8-2.2c-0.5-0.1-1.1-0.2-1.5-0.3
				c-1.9-0.2-3.7-0.3-5.6-0.2c-4.8,0.2-9.5,1-14.2,1.2c-2.6,0.2-5.3,0.2-7.9-0.1c-9.7-1.2-15.1-6.9-22.3-11.3
				c-1.7-1-3.5-1.9-5.3-2.7c-1.9-0.7-3.8-1.3-5.8-1.6c-4.7-0.8-9.5-0.9-14.3-0.4c-8.8,0.6-17.9,2.1-26.1,1.1c-0.3,0-0.5-0.1-0.8-0.1
				c-0.2,0-0.4-0.1-0.5-0.1L27,28.7c-0.3-0.1-0.5-0.1-0.8-0.2c-0.5-0.1-1-0.2-1.5-0.4c-0.2-0.1-0.4-0.1-0.4-0.2
				c-0.4-0.2-0.9-0.3-1.2-0.4c-0.2-0.1-0.4-0.2-0.6-0.3c-0.3-0.1-0.5-0.2-0.7-0.4l0,0c6.9-2,14-7.7,14-14.7v-0.4
				c2.4-0.5,5-1.2,7.8-1.7c7.5-1.7,15.2-2.8,23-3C72.5,7,78.2,7.7,82.8,9.9c0.7,0.4,1.3,0.7,2,1.1c1.9,1.2,3.5,2.8,4.6,4.7
				c2.9,4.4,4,9.4,10.9,11.9c2.8,0.9,5.8,1.2,8.7,0.8c5-0.4,10-1.7,15.1-1l0,0c2.3,0.3,4.6,1.1,6.6,2.2c1.3,0.7,2.5,1.5,3.7,2.5
				c2,1.6,3.7,3.5,5.5,5.2C143.5,40.9,147.3,44.1,154.1,44.1z"/>
			<g id="Group_10" transform="translate(80.909 15.601)" class="st2">
				<path id="Path_41" class="st11" d="M30.2,28.5c-2.6,0.2-5.3,0.2-7.9-0.1C12.6,27.2,7.2,21.5,0,17.1C1.5,10.8,4.2,4.5,8.4,0
					c2.9,4.4,4,9.4,10.9,11.9c2.8,0.9,5.8,1.2,8.7,0.8c-0.3,2.1-0.3,4.2-0.1,6.3C28.4,22.2,29.2,25.4,30.2,28.5z"/>
			</g>
			<g id="Group_11" transform="translate(138.923 37.341)" class="st2">
				<path id="Path_42" class="st3" d="M15.2,6.8c-5.6,4.8-10.1,3.4-15,1.5C-0.3,5.5-0.1,2.7,0.9,0C4.6,3.6,8.4,6.8,15.2,6.8z"/>
       
			</g>
			<g id="Group_12" transform="translate(21.48 9.988)" class="st2">
				<path id="Path_43" class="st3" d="M21.8,0c-0.9,3.5-2.5,6.8-4.7,9.7c-3,4.4-6.1,7.4-9.2,9.3c-2.7-0.3-5.4-1.1-7.9-2.2
					c6.9-2,14-7.7,14-14.7V1.7C16.4,1.2,19.1,0.6,21.8,0z"/>
			</g>
      
         
		</g>
		<g id="Group_25">
			<path id="Path_44" class="st4" d="M151.1,76.1C150.3,96.4,139.8,118,126,137c-10.5,14.5-22.9,27.6-36.7,38.9H62.6
				C9.6,128.3-25.9,69.2,23.8,20.4c7.6-7.5,16.7-13.1,26.7-16.6c1.2-0.4,2.2-0.7,3.4-1.1c0.3-0.1,0.6-0.2,0.9-0.3
				c0.2-0.1,0.4-0.1,0.5-0.2c0.4-0.1,0.9-0.3,1.3-0.4c0.4,0,0.8-0.1,1.2-0.2H58c0.5-0.1,1.1-0.3,1.6-0.4c3.2-0.6,6.5-1.1,9.7-1.2
				C73.5-0.1,77.8,0,82,0.5c3.3,0.3,6.6,0.9,9.8,1.7l0,0c3.7,0.9,7.3,2,10.8,3.4l0,0c9.8,3.8,18.7,9.5,26.3,16.8
				c5,4.7,9.2,10.1,12.7,15.9C148.3,49.7,151.6,62.9,151.1,76.1z"/>
			<g id="Group_14" transform="translate(59.408 177.438)">
				<path id="Path_45" class="st1" d="M0,31.2c0,0,1.4-9.5,2.7-15.6S6.4,0.2,6.4,0.2c0.1-0.4,1.2-0.1,1.1,0.2c0,0-1.4,9.5-2.7,15.6
					S1.1,31.4,1.1,31.4C0.9,31.6,0,31.4,0,31.2z"/>
			</g>
			<g id="Group_15" transform="translate(83.553 177.392)">
				<path id="Path_46" class="st1" d="M5.7,31c0,0-2.2-9.3-3.4-15.2C1.2,9.8,0,0.4,0,0.4C0,0,1-0.1,1.1,0.1c0,0,2.2,9.3,3.4,15.2
					c1.1,6,2.3,15.4,2.3,15.4C6.7,31.1,5.8,31.3,5.7,31z"/>
			</g>
			<path id="Path_47" class="st5" d="M100.7,218.1l-0.2,1.3L96,254.5l-0.4,3.4H55.5l-4.9-38.5l-0.2-1.3H100.7z"/>
			<g id="Group_16" transform="translate(50.409 218.061)" class="st6">
				<path id="Path_48" class="st3" d="M45.6,36.4l-0.4,3.4H5.1L0,0h25.6c-6.9,5.2-13.5,13.3-13.3,22.1c0.4,12.5,10.2,15.1,20.9,15.2
					C37.4,37.4,41.5,37.1,45.6,36.4z"/>
			</g>
			<path id="Path_49" class="st7" d="M96.1,116.1c-3,20.2-9.3,39.9-18.4,58.2h-4.5c-5.6-12.1-11-24.7-14.7-38
				C51.6,110,50,82.5,53.7,55.5c2.9-19.5,7.4-38,15.6-55.3C73.5,0,77.8,0.1,82,0.6c5.3,11.3,9.7,22.9,13.3,34.8
				C102.2,61.4,99.9,89.3,96.1,116.1z"/>
			<path id="Path_50" class="st7" d="M68.7,174.8l-2,0.7c-12-12-22.9-25.1-34.1-37.6c-19.8-21.8-49.6-91.9,18-134.1
				c3-1,6-1.8,9.1-2.4C41.9,15.2,31.4,36.4,28.3,57.7c-4.1,28.6,3.5,57.9,17.6,83.1C52.5,152.5,59.3,165.2,68.7,174.8z"/>
			<path id="Path_51" class="st7" d="M117.9,138c-11.2,12.5-22.1,25.5-34.1,37.6l-2-0.7c9.3-9.6,16.2-22.5,22.7-34.1
				c14.2-25.1,21.7-54.4,17.6-83.1c-3-20.8-13.2-41.7-30.3-55.5c3.7,0.9,7.3,2,10.8,3.4l0,0C166.7,48,137.5,116.4,117.9,138z"/>
			<g id="Group_17" transform="translate(60.744 216.591)">
				<path id="Path_52" class="st8" d="M0.4,16.2c0,0-0.4-4.9-0.4-8s0.4-8,0.4-8c0-0.2,0.8-0.2,0.8,0c0,0,0.4,4.9,0.4,8s-0.4,8-0.4,8
					C1.2,16.3,0.4,16.3,0.4,16.2z"/>
			</g>
			<path id="Path_53" class="st9" d="M65.6,244.2c-0.1,1.2-0.5,2.3-1.2,3.2c-1.5,2.2-4.9,3.1-7.1,1.3c-3.2-2.5-2.1-6.7-0.2-10.5
				c1.3-2.3,2.7-4.5,4.4-6.5c0.7,2.3,2.1,4.5,2.9,7C65.3,240.4,65.7,242.3,65.6,244.2z"/>
			<g id="Group_18" transform="translate(61.183 217.348)">
				<path id="Path_54" class="st1" d="M25,0.4c-0.1,0.6-0.3,1.1-0.5,1.6c-0.6,1.3-1.3,2.5-2.1,3.6c-2.2,2.8-6.4,4.2-9.7,4.3
					C10.8,9.9,9,9.6,7.3,9C5.6,8.4,4,7.4,2.7,6.1c-1-1-1.8-2.2-2.2-3.6C0.3,2,0.2,1.6,0.1,1.3C0,1.2,0,1,0,0.9
					c-0.1-0.4,0.7-0.5,0.8-0.2L1,1.1c0.1,0.4,0.3,0.7,0.4,1.1c0.5,1.2,1.3,2.2,2.2,3c1.2,1.1,2.6,1.9,4.2,2.4
					c1.6,0.5,3.2,0.7,4.8,0.5c1.6,0,3.3-0.3,4.8-0.9c0.8-0.3,1.6-0.7,2.3-1.1l0.5-0.3l0.4-0.4l0.8-0.8c0.9-1,1.6-2,2.2-3.2
					c0.2-0.4,0.4-0.9,0.5-1.4C24.4-0.1,25.1,0,25,0.4z"/>
			</g>
			<g id="Group_19" transform="translate(85.514 216.623)">
				<path id="Path_55" class="st1" d="M15.1,0.2v1.2c0,1-0.2,2-0.6,2.9c-0.5,1.3-1.3,2.4-2.3,3.3c-1.1,0.8-2.3,1.4-3.7,1.6
					c-1.3,0.2-2.7,0-3.9-0.4C4,8.6,3.3,8.2,2.8,7.9C2.2,7.5,1.8,7,1.3,6.5C0.7,5.7,0.2,4.7,0.1,3.7C0,3.4,0,3.1,0,2.8V2.4
					c0-0.3,0.8-0.3,0.8,0v0.3C0.8,3,0.9,3.2,1,3.5c0.2,0.8,0.7,1.6,1.2,2.2C3,6.5,4,7.1,5.1,7.4c1,0.3,2.1,0.4,3.2,0.3
					c1.1-0.1,2.1-0.5,2.9-1.2c0.9-0.7,1.6-1.6,2-2.6c0.4-0.8,0.6-1.7,0.8-2.6c0.1-0.3,0.1-0.5,0.1-0.8V0.3
					C14.4-0.1,15.1-0.1,15.1,0.2z"/>
			</g>
			<g id="Group_20" transform="translate(50.013 217.392)">
				<path id="Path_56" class="st1" d="M0.8,0.8C0.9,1,0.9,1.2,1,1.5c0.1,0.6,0.4,1.1,0.8,1.6C2.3,3.6,3,4,3.7,4.2
					C4.4,4.4,5.2,4.5,6,4.4c1.6-0.1,3-0.8,4.1-2c0.4-0.5,0.7-1,0.8-1.6C11,0.4,11,0.1,11.1,0.1c0-0.2,0.8-0.2,0.8,0V1
					c-0.1,0.8-0.4,1.5-0.8,2.1C10.6,4,9.8,4.7,9,5.1C8.1,5.6,7.2,5.9,6.2,6c-1,0.1-2,0-2.9-0.4c-1-0.4-1.8-1-2.4-1.8
					C0.4,3.2,0.2,2.5,0,1.7C0,1.4,0,1.1,0,0.8C0,0.6,0.8,0.6,0.8,0.8z"/>
			</g>
			<g id="Group_21" transform="translate(0 1.729)" class="st10">
				<path id="Path_57" class="st3" d="M126,135.3c-10.5,14.5-22.9,27.6-36.7,38.9H62.6C9.6,126.6-25.9,67.4,23.8,18.6
					C31.3,11.2,40.5,5.5,50.5,2c2.5-0.8,5-1.5,7.5-2C39.3,11.7,28,44.2,27.6,61.1c-1.4,38.2,31.7,70.4,68,75.9
					C105.7,138.6,116.1,137.9,126,135.3z"/>
			</g>
			<rect id="Rectangle_24" x="62.6" y="174.4" class="st11" width="26.6" height="6.1"/>
			<g id="Group_22" transform="translate(85.068 216.702)">
				<path id="Path_58" class="st8" d="M0.4,25.5c0,0-0.4-7.8-0.4-12.7c0-5,0.4-12.7,0.4-12.7c0-0.3,0.8-0.3,0.8,0
					c0,0,0.4,7.8,0.4,12.7c0,5-0.4,12.7-0.4,12.7C1.1,25.8,0.4,25.8,0.4,25.5z"/>
			</g>
			<rect id="Rectangle_25" x="46.4" y="208.2" class="st11" width="58.2" height="9.9"/>
			<path id="Path_59" class="st9" d="M89.7,253.5c-0.2,0.8-0.5,1.5-1,2.1c-1.5,2.2-4.9,3.1-7.1,1.3c-3.2-2.5-2.2-6.6-0.4-10.2
				c1.3-2.4,2.8-4.6,4.5-6.8c0.7,2.3,2.1,4.5,2.9,7C89.6,249,90,251.3,89.7,253.5z"/>
			<g id="Group_23" transform="translate(55.317 238.197)" class="st6">
				<path id="Path_60" class="st12" d="M10.3,6c-0.1,1.2-0.5,2.3-1.2,3.2c-1.5,2.2-4.9,3.1-7.1,1.3C-1.2,8-0.1,3.8,1.9,0
					C1.9,4.4,6.1,6.8,10.3,6z"/>
			</g>
			<g id="Group_24" transform="translate(79.503 246.75)" class="st6">
				<path id="Path_61" class="st12" d="M10.2,6.8c-0.2,0.8-0.5,1.5-1,2.1c-1.5,2.2-4.9,3.1-7.1,1.3C-1.1,7.7-0.1,3.7,1.7,0
					c-0.3,4.1,3,7,8.3,6.9C10.1,6.8,10.1,6.8,10.2,6.8z"/>
			</g>
		</g>
	
	</g>
	<path id="cloud_l" class="st14" d="M34.1,6083.6c-2.1-11.3,14.5-19.6,20.2-8.2l0,0c-2.1-24.3,32.1-32.6,30-4.7
		c6.2-10.3,19.1-3.7,19.6,6.7c15.6-9.1,19.2,6.2,19.2,6.2S58.4,6083.6,34.1,6083.6"/>
	<path id="cloud_r" class="st14" d="M347.6,5924.6h-81.9c-1-5.9,2.4-10.1,7.2-10.1c1.6,0,3.2,0.5,4.7,1.2c-0.2-2,0.1-4,0.9-5.8
		c3.3-7.5,14.9-10,21.7-4.3c-7.1-19.6,36.9-20.3,27.3,3.5c6.4-3.5,13.9-2.4,18.2,1.4C349.3,5913.9,350.7,5918.9,347.6,5924.6z"/>
</g>

<animateMotion 
xlink:href="#cloud_r"
attributeName="d"
repeatCount="indefinite"
dur="16s"
path="M0.6,17.5L42.4,4.4c0,0,36.4-9.1,52.4,0.4s35.6,1.8,39.3,11.6c3.6,9.8,23.3,16.4,10.2,30.5s-32.7,15.6-52,14.5
C73,60.4,68.2,49.9,37,44.1S0.6,17.5,0.6,17.5z"


 />

 <animateMotion 
xlink:href="#cloud_l"
attributeName="d"
repeatCount="indefinite"
dur="16s"
path="M61,0.6l28.3,26.2c0,0,20.7,23.6,7.2,38.5s2.2,26.8-13.8,32.8c-16,6-24.1,22.7-49.9,17.9
	C7,111.3,1.6,97.4,0.5,82.8s16-21.6,21.2-46.5S61,0.6,61,0.6z"


 />

 <animate 
           xlink:href="#Path_41"
           attributeName="fill"
           from="#ffffff"
           to="#37112E" 
           
           dur="3s"
           repeatCount="indefinite"
           begin="0s"
          />



</svg>

   
      
    
