<svg xmlns="http://www.w3.org/2000/svg" width="341.069" height="285.39" viewBox="0 0 341.069 285.39">
  <g id="Group_42" data-name="Group 42" transform="translate(-33.931 -5891.115)">
    <g id="hot_air_ballon" transform="translate(104.696 5918.56)">
      <g id="Group_13" data-name="Group 13" transform="translate(116.156 135.636)">
        <g id="Group_8" data-name="Group 8" transform="translate(10.884)">
          <path id="Path_38" data-name="Path 38" d="M168.083,164.316h-1.426a19.867,19.867,0,0,1-3.564-.356,30.062,30.062,0,0,1-8.732-3.118,71.3,71.3,0,0,1-7.662-5.079c-2.317-1.693-4.009-2.851-4.009-2.851-.267-.178.178-.8.446-.713,0,0,1.871,1.069,4.277,2.495,2.406,1.515,5.346,3.386,7.752,4.633a31.783,31.783,0,0,0,8.2,3.386,19.947,19.947,0,0,0,3.386.535c.891.089,1.426.089,1.426.089C168.35,163.6,168.35,164.316,168.083,164.316Z" transform="translate(-142.607 -152.19)" fill="#5b1c18"/>
        </g>
        <g id="Group_9" data-name="Group 9" transform="translate(0 12.443)">
          <path id="Path_39" data-name="Path 39" d="M156.861,181.609s-.624,0-1.6-.089-2.406-.267-4.009-.535a37.02,37.02,0,0,1-9.8-3.118,24.463,24.463,0,0,1-8.2-6.326c-.446-.713-.98-1.247-1.336-1.871s-.624-1.158-.891-1.6a15.844,15.844,0,0,0-.624-1.515c-.089-.356.624-.535.8-.267l.713,1.426c.267.445.535.891.891,1.426s.891,1.069,1.336,1.693a26.859,26.859,0,0,0,8.019,5.7,46.537,46.537,0,0,0,9.355,3.3c1.515.356,2.851.624,3.831.8a9.933,9.933,0,0,0,1.6.178C157.218,180.9,157.129,181.609,156.861,181.609Z" transform="translate(-130.391 -166.156)" fill="#5b1c18"/>
        </g>
        <path id="Path_40" data-name="Path 40" d="M287.19,197.164c-5.613,4.811-10.068,3.386-14.969,1.515a46.4,46.4,0,0,0-6.772-2.227c-.535-.089-1.069-.178-1.515-.267a39.4,39.4,0,0,0-5.613-.178c-4.811.178-9.534.98-14.167,1.247a39.313,39.313,0,0,1-7.93-.089c-9.712-1.247-15.058-6.95-22.275-11.315a42.723,42.723,0,0,0-5.346-2.673,26.65,26.65,0,0,0-5.791-1.6,54.127,54.127,0,0,0-14.256-.445c-8.821.624-17.909,2.138-26.106,1.069-.267,0-.535-.089-.8-.089-.178,0-.356-.089-.535-.089l-1.069-.267c-.267-.089-.535-.089-.8-.178a7.527,7.527,0,0,1-1.515-.445c-.178-.089-.356-.089-.445-.178-.445-.178-.891-.267-1.247-.445a4.346,4.346,0,0,0-.624-.267,1.791,1.791,0,0,1-.713-.356h0c6.861-2.049,13.988-7.662,13.988-14.7v-.356c2.406-.535,4.99-1.158,7.841-1.693a121.083,121.083,0,0,1,22.987-3.029c6.059-.089,11.761.624,16.305,2.851.713.356,1.336.713,1.96,1.069a13.739,13.739,0,0,1,4.633,4.722c2.851,4.366,4.009,9.444,10.87,11.85a20.993,20.993,0,0,0,8.732.8c4.99-.356,9.979-1.693,15.147-.98h0a18.074,18.074,0,0,1,6.593,2.227,21.942,21.942,0,0,1,3.653,2.495c2.049,1.6,3.742,3.475,5.524,5.168C276.587,193.957,280.329,197.164,287.19,197.164Z" transform="translate(-133.041 -153.052)" fill="#915d6c"/>
        <g id="Group_10" data-name="Group 10" transform="translate(80.909 15.601)" opacity="0.2">
          <path id="Path_41" data-name="Path 41" d="M251.4,198.211a39.315,39.315,0,0,1-7.93-.089c-9.712-1.247-15.058-6.95-22.275-11.316,1.515-6.326,4.188-12.563,8.375-17.107,2.851,4.366,4.009,9.444,10.87,11.85a20.993,20.993,0,0,0,8.732.8,24.706,24.706,0,0,0-.089,6.326A67.638,67.638,0,0,0,251.4,198.211Z" transform="translate(-221.2 -169.7)" fill="#7c7c7c"/>
        </g>
        <g id="Group_11" data-name="Group 11" transform="translate(138.923 37.341)" opacity="0.2">
          <path id="Path_42" data-name="Path 42" d="M301.537,200.871c-5.613,4.811-10.068,3.386-14.969,1.515a16.078,16.078,0,0,1,.624-8.286C290.934,197.664,294.677,200.871,301.537,200.871Z" transform="translate(-286.312 -194.1)" fill="#7c7c7c"/>
        </g>
        <g id="Group_12" data-name="Group 12" transform="translate(21.48 9.988)" opacity="0.2">
          <path id="Path_43" data-name="Path 43" d="M176.329,163.4a27.292,27.292,0,0,1-4.722,9.712c-3.029,4.366-6.059,7.4-9.177,9.266a26.943,26.943,0,0,1-7.93-2.227c6.861-2.049,13.988-7.662,13.988-14.7v-.356C170.894,164.647,173.567,164.024,176.329,163.4Z" transform="translate(-154.5 -163.4)" fill="#7c7c7c"/>
        </g>
      </g>
      <g id="Group_25" data-name="Group 25">
        <path id="Path_44" data-name="Path 44" d="M151.114,76.086c-.8,20.314-11.316,41.876-25.126,60.854a209.8,209.8,0,0,1-36.709,38.936H62.639C9.625,128.3-25.836,69.136,23.792,20.31A70.886,70.886,0,0,1,50.521,3.738c1.158-.356,2.227-.713,3.386-1.069.267-.089.624-.178.891-.267.178-.089.356-.089.535-.178.445-.089.891-.267,1.336-.356a5.215,5.215,0,0,0,1.158-.178h.178c.535-.089,1.069-.267,1.6-.356A72.407,72.407,0,0,1,69.321.085,76.138,76.138,0,0,1,82.062.441a72.69,72.69,0,0,1,9.8,1.693h0A75.651,75.651,0,0,1,102.644,5.52h0A79.227,79.227,0,0,1,128.928,22.27,71.3,71.3,0,0,1,141.58,38.219,69.293,69.293,0,0,1,151.114,76.086Z" transform="translate(-0.024 0.041)" fill="#37112e"/>
        <g id="Group_14" data-name="Group 14" transform="translate(59.408 177.438)">
          <path id="Path_45" data-name="Path 45" d="M66.7,230.285s1.426-9.534,2.673-15.592,3.742-15.414,3.742-15.414c.089-.356,1.158-.089,1.069.178,0,0-1.426,9.534-2.673,15.592s-3.742,15.414-3.742,15.414C67.591,230.731,66.7,230.553,66.7,230.285Z" transform="translate(-66.7 -199.107)" fill="#915d6c"/>
        </g>
        <g id="Group_15" data-name="Group 15" transform="translate(83.553 177.392)">
          <path id="Path_46" data-name="Path 46" d="M99.5,230.1s-2.227-9.266-3.386-15.236c-1.069-5.97-2.317-15.414-2.317-15.414,0-.356.98-.535,1.069-.267,0,0,2.227,9.266,3.386,15.236,1.069,5.97,2.317,15.414,2.317,15.414C100.482,230.19,99.591,230.369,99.5,230.1Z" transform="translate(-93.8 -199.055)" fill="#915d6c"/>
        </g>
        <path id="Path_47" data-name="Path 47" d="M106.852,244.7l-.178,1.336-4.455,35.1-.446,3.386H61.679l-4.9-38.491L56.6,244.7Z" transform="translate(-6.191 -26.639)" fill="#dea076"/>
        <g id="Group_16" data-name="Group 16" transform="translate(50.409 218.061)" opacity="0.3">
          <path id="Path_48" data-name="Path 48" d="M102.218,281.141l-.445,3.386H61.679L56.6,244.7H82.171c-6.95,5.168-13.454,13.276-13.276,22.1.356,12.474,10.246,15.147,20.938,15.236A70.517,70.517,0,0,0,102.218,281.141Z" transform="translate(-56.6 -244.7)" fill="#7c7c7c"/>
        </g>
        <path id="Path_49" data-name="Path 49" d="M102.47,116.1a193.884,193.884,0,0,1-18.443,58.181H79.483c-5.613-12.117-10.959-24.68-14.7-37.956a207.551,207.551,0,0,1-4.722-80.812C63,36,67.454,17.47,75.651.185A76.138,76.138,0,0,1,88.392.541a255.463,255.463,0,0,1,13.276,34.838C108.529,61.4,106.3,89.283,102.47,116.1Z" transform="translate(-6.354 0.03)" fill="#fcfcfc"/>
        <path id="Path_50" data-name="Path 50" d="M69.747,174.986,67.7,175.7c-12.028-12.028-22.9-25.126-34.125-37.6-19.78-21.829-49.628-91.861,18-134.093A85.569,85.569,0,0,1,60.659,1.6C42.928,15.321,32.5,36.527,29.385,57.821c-4.1,28.6,3.475,57.914,17.552,83.129C53.531,152.622,60.391,165.363,69.747,174.986Z" transform="translate(-1.073 -0.138)" fill="#fcfcfc"/>
        <path id="Path_51" data-name="Path 51" d="M127.974,138.175c-11.226,12.474-22.1,25.482-34.125,37.6l-2.049-.713c9.266-9.623,16.216-22.453,22.72-34.125,14.167-25.126,21.74-54.439,17.552-83.129-3.029-20.849-13.187-41.7-30.294-55.508A75.651,75.651,0,0,1,112.56,5.686h0C176.711,48.186,147.487,116.613,127.974,138.175Z" transform="translate(-10.029 -0.214)" fill="#fcfcfc"/>
        <g id="Group_17" data-name="Group 17" transform="translate(60.744 216.591)">
          <path id="Path_52" data-name="Path 52" d="M68.556,259.221s-.356-4.9-.356-8.019.356-8.019.356-8.019c0-.178.8-.178.8,0,0,0,.356,4.9.356,8.019s-.356,8.019-.356,8.019C69.358,259.4,68.645,259.4,68.556,259.221Z" transform="translate(-68.2 -243.05)" fill="#202a48"/>
        </g>
        <path id="Path_53" data-name="Path 53" d="M72.436,272.474a6.112,6.112,0,0,1-1.158,3.208c-1.515,2.227-4.9,3.118-7.128,1.336-3.208-2.495-2.138-6.682-.178-10.514a45.343,45.343,0,0,1,4.366-6.5c.713,2.317,2.138,4.544,2.94,7.039A11.275,11.275,0,0,1,72.436,272.474Z" transform="translate(-6.792 -28.307)" fill="#722338"/>
        <g id="Group_18" data-name="Group 18" transform="translate(61.183 217.348)">
          <path id="Path_54" data-name="Path 54" d="M93.736,244.256a6.579,6.579,0,0,1-.535,1.6,16.242,16.242,0,0,1-2.138,3.564c-2.227,2.762-6.415,4.188-9.712,4.277a12.83,12.83,0,0,1-5.346-.8,11.814,11.814,0,0,1-4.633-2.94,9.561,9.561,0,0,1-2.227-3.564c-.178-.535-.267-.891-.356-1.158a1.559,1.559,0,0,1-.089-.445c-.089-.356.713-.535.8-.178l.178.356a4.574,4.574,0,0,0,.446,1.069,9.049,9.049,0,0,0,2.227,3.029,10.779,10.779,0,0,0,4.188,2.406,12.912,12.912,0,0,0,4.811.535,15.749,15.749,0,0,0,4.811-.891,18.377,18.377,0,0,0,2.317-1.069l.535-.267.446-.356.8-.8a14.024,14.024,0,0,0,2.227-3.208,5.678,5.678,0,0,0,.535-1.426C93.112,243.811,93.825,243.9,93.736,244.256Z" transform="translate(-68.692 -243.9)" fill="#915d6c"/>
        </g>
        <g id="Group_19" data-name="Group 19" transform="translate(85.514 216.623)">
          <path id="Path_55" data-name="Path 55" d="M111.147,243.277v1.247a8.685,8.685,0,0,1-.624,2.94,7.473,7.473,0,0,1-2.317,3.3,7.825,7.825,0,0,1-3.653,1.6,8.489,8.489,0,0,1-3.92-.445,9.443,9.443,0,0,1-1.871-.98,10.439,10.439,0,0,1-1.426-1.336,5.6,5.6,0,0,1-1.247-2.851,3.69,3.69,0,0,1-.089-.891V245.5c0-.267.8-.267.8,0v.267a4.519,4.519,0,0,0,.178.8,5.167,5.167,0,0,0,1.247,2.227,6.761,6.761,0,0,0,2.851,1.693,7.987,7.987,0,0,0,3.208.267,6.376,6.376,0,0,0,2.94-1.158,6.461,6.461,0,0,0,2.049-2.584,13.772,13.772,0,0,0,.8-2.584,3.069,3.069,0,0,0,.089-.8v-.267C110.434,243.009,111.058,243.009,111.147,243.277Z" transform="translate(-96 -243.086)" fill="#915d6c"/>
        </g>
        <g id="Group_20" data-name="Group 20" transform="translate(50.013 217.392)">
          <path id="Path_56" data-name="Path 56" d="M57,244.707a2.142,2.142,0,0,0,.178.713,3.857,3.857,0,0,0,.8,1.6,4.452,4.452,0,0,0,1.871,1.158,6.97,6.97,0,0,0,2.317.178,5.981,5.981,0,0,0,4.1-1.96,3.858,3.858,0,0,0,.8-1.6c.089-.446.089-.713.178-.713,0-.178.8-.178.8,0v.891a5.345,5.345,0,0,1-.8,2.138,5.079,5.079,0,0,1-2.138,1.96,6.694,6.694,0,0,1-2.762.891,6.848,6.848,0,0,1-2.94-.356A5.513,5.513,0,0,1,57,247.826a5.345,5.345,0,0,1-.8-2.138,2.393,2.393,0,0,1,0-.891C56.2,244.529,56.908,244.529,57,244.707Z" transform="translate(-56.156 -243.95)" fill="#915d6c"/>
        </g>
        <g id="Group_21" data-name="Group 21" transform="translate(0 1.729)" opacity="0.15">
          <path id="Path_57" data-name="Path 57" d="M125.988,137.152a209.8,209.8,0,0,1-36.709,38.936H62.639C9.625,128.509-25.836,69.348,23.792,20.522A70.886,70.886,0,0,1,50.521,3.949c2.495-.8,4.99-1.515,7.484-2.049C39.3,13.572,27.98,46.093,27.623,63.022c-1.426,38.223,31.719,70.388,67.982,75.912A73.909,73.909,0,0,0,125.988,137.152Z" transform="translate(-0.024 -1.9)" fill="#7c7c7c"/>
        </g>
        <rect id="Rectangle_24" data-name="Rectangle 24" width="26.551" height="6.059" transform="translate(62.615 174.402)" fill="#fd9728"/>
        <g id="Group_22" data-name="Group 22" transform="translate(85.068 216.702)">
          <path id="Path_58" data-name="Path 58" d="M95.856,268.679s-.356-7.752-.356-12.652c0-4.99.356-12.652.356-12.652,0-.267.8-.267.8,0,0,0,.356,7.752.356,12.652,0,4.989-.356,12.652-.356,12.652C96.569,268.947,95.856,268.947,95.856,268.679Z" transform="translate(-95.5 -243.175)" fill="#202a48"/>
        </g>
        <rect id="Rectangle_25" data-name="Rectangle 25" width="58.181" height="9.89" transform="translate(46.399 208.171)" fill="#fd9728"/>
        <path id="Path_59" data-name="Path 59" d="M99.452,282.843a5.741,5.741,0,0,1-.98,2.138c-1.515,2.227-4.9,3.118-7.128,1.336-3.208-2.495-2.227-6.593-.356-10.246a49.577,49.577,0,0,1,4.455-6.772c.713,2.317,2.138,4.544,2.94,7.039A11,11,0,0,1,99.452,282.843Z" transform="translate(-9.751 -29.321)" fill="#722338"/>
        <g id="Group_23" data-name="Group 23" transform="translate(55.317 238.197)" opacity="0.3">
          <path id="Path_60" data-name="Path 60" d="M72.436,273.27a6.111,6.111,0,0,1-1.158,3.208c-1.515,2.227-4.9,3.118-7.128,1.336-3.208-2.495-2.138-6.682-.178-10.514C63.972,271.666,68.16,274.071,72.436,273.27Z" transform="translate(-62.109 -267.3)" fill="#303030"/>
        </g>
        <g id="Group_24" data-name="Group 24" transform="translate(79.503 246.75)" opacity="0.3">
          <path id="Path_61" data-name="Path 61" d="M99.452,283.671a5.741,5.741,0,0,1-.98,2.138c-1.515,2.227-4.9,3.118-7.128,1.336-3.208-2.495-2.227-6.593-.356-10.246-.267,4.1,3.029,6.95,8.286,6.861C99.363,283.671,99.363,283.671,99.452,283.671Z" transform="translate(-89.255 -276.9)" fill="#303030"/>
        </g>
      </g>
      <g id="Group_26" data-name="Group 26" transform="translate(171.672 142.498)" opacity="0.3">
        <path id="Path_62" data-name="Path 62" d="M219.786,162.75c-5.88,3.475-10.246,11.048-12.83,18.622a54.127,54.127,0,0,0-14.256-.445c5.079-5.613,9.623-14.345,10.781-21.027C209.54,159.81,215.242,160.612,219.786,162.75Z" transform="translate(-192.7 -159.893)" fill="#fff"/>
      </g>
    </g>
    <path id="cloud_1" d="M.164,30.472C-1.918,19.149,14.651,10.823,20.4,22.229h0C18.315-2.083,52.451-10.409,50.37,17.567c6.244-10.324,19.15-3.663,19.649,6.744,15.57-9.075,19.15,6.244,19.15,6.244s-64.693-.083-89-.083" transform="translate(33.947 6053.153)" fill="#e8e8e8"/>
    <path id="cloud_3" d="M82.081,33.539H.192c-.956-5.924,2.389-10.129,7.166-10.129a10.108,10.108,0,0,1,4.682,1.242,11.57,11.57,0,0,1,.86-5.829c3.344-7.549,14.906-10.033,21.69-4.3C27.52-5.064,71.475-5.733,61.919,18.06c6.4-3.535,13.855-2.389,18.155,1.433C83.8,22.742,85.234,27.806,82.081,33.539Z" transform="translate(265.476 5891.108)" fill="#e8e8e8"/>
  </g>
</svg>
