<svg id="dribbble" xmlns="http://www.w3.org/2000/svg" width="22.977" height="22.977" viewBox="0 0 22.977 22.977">
  <path id="Path_30" data-name="Path 30" d="M175.682,4.923a4.666,4.666,0,0,0,1.2-2.333A10.745,10.745,0,0,0,165.988.731a27.984,27.984,0,0,1,5.054,7.04A11.459,11.459,0,0,0,175.682,4.923Zm0,0" transform="translate(-158.2)" fill="#cecdcd"/>
  <path id="Path_31" data-name="Path 31" d="M302.474,86.73a12.591,12.591,0,0,1-5.021,3.157c.26.57.5,1.152.724,1.742a15.805,15.805,0,0,1,3.323-.363,15.615,15.615,0,0,1,5.126.861c0-.073.011-.145.011-.219a10.861,10.861,0,0,0-2.858-7.339A6.367,6.367,0,0,1,302.474,86.73Zm0,0" transform="translate(-283.661 -80.683)" fill="#cecdcd"/>
  <path id="Path_32" data-name="Path 32" d="M5.848,37.656a25.434,25.434,0,0,0,4.33.38,23.329,23.329,0,0,0,6.343-.869A26.574,26.574,0,0,0,11.446,30.3,11.145,11.145,0,0,0,5.848,37.656Zm0,0" transform="translate(-5.597 -29.004)" fill="#cecdcd"/>
  <path id="Path_33" data-name="Path 33" d="M332.352,271.9a14.265,14.265,0,0,0-5.015-.9,14.611,14.611,0,0,0-2.892.292,31.754,31.754,0,0,1,1.592,9.052A11,11,0,0,0,332.352,271.9Zm0,0" transform="translate(-309.497 -258.34)" fill="#cecdcd"/>
  <path id="Path_34" data-name="Path 34" d="M0,219.832a11.062,11.062,0,0,0,4.044,8.447A9.283,9.283,0,0,1,6.319,223.5a12.9,12.9,0,0,1,5.89-3.63c-.218-.561-.455-1.111-.706-1.654a24.48,24.48,0,0,1-6.922.975,26.733,26.733,0,0,1-4.528-.4c-.032.342-.053.688-.053,1.039Zm0,0" transform="translate(0 -207.814)" fill="#cecdcd"/>
  <path id="Path_35" data-name="Path 35" d="M124.489,288.35a7.757,7.757,0,0,0-2.036,4.778,10.845,10.845,0,0,0,8.957,1.181,30.493,30.493,0,0,0-1.562-9.234A11.619,11.619,0,0,0,124.489,288.35Zm0,0" transform="translate(-116.783 -271.812)" fill="#cecdcd"/>
</svg>
