<svg id="github-logo-2" xmlns="http://www.w3.org/2000/svg" width="22.977" height="22.977" viewBox="0 0 22.977 22.977">
  <path id="Path_36" data-name="Path 36" d="M21.436,11.23a11.586,11.586,0,0,0-4.181-4.286,11.026,11.026,0,0,0-5.767-1.579A11.028,11.028,0,0,0,5.722,6.944,11.585,11.585,0,0,0,1.541,11.23,11.742,11.742,0,0,0,0,17.141a11.639,11.639,0,0,0,2.191,6.923,11.274,11.274,0,0,0,5.662,4.255.657.657,0,0,0,.6-.107.607.607,0,0,0,.194-.46q0-.046-.008-.828T8.631,25.56l-.344.061a4.283,4.283,0,0,1-.83.054,6.176,6.176,0,0,1-1.04-.107,2.3,2.3,0,0,1-1-.46,1.945,1.945,0,0,1-.658-.943l-.15-.353a3.85,3.85,0,0,0-.471-.782,1.818,1.818,0,0,0-.651-.583l-.1-.077a1.109,1.109,0,0,1-.194-.184.844.844,0,0,1-.135-.215q-.045-.108.075-.177a.949.949,0,0,1,.434-.069l.3.046a2.161,2.161,0,0,1,.74.368,2.452,2.452,0,0,1,.725.8,2.682,2.682,0,0,0,.83.959,1.732,1.732,0,0,0,.98.33,4.153,4.153,0,0,0,.853-.076,2.925,2.925,0,0,0,.673-.23,2.509,2.509,0,0,1,.733-1.58,10.016,10.016,0,0,1-1.533-.276,6.023,6.023,0,0,1-1.406-.6,4.052,4.052,0,0,1-1.2-1.027,4.985,4.985,0,0,1-.785-1.61,7.835,7.835,0,0,1-.307-2.3A4.536,4.536,0,0,1,5.34,13.369a4.218,4.218,0,0,1,.1-3.128,2.05,2.05,0,0,1,1.286.207,8.894,8.894,0,0,1,1.249.59q.4.245.636.414a10.549,10.549,0,0,1,5.744,0l.568-.368a7.966,7.966,0,0,1,1.376-.675,1.917,1.917,0,0,1,1.212-.169,4.177,4.177,0,0,1,.119,3.128,4.536,4.536,0,0,1,1.182,3.159,7.923,7.923,0,0,1-.307,2.308,4.79,4.79,0,0,1-.792,1.61,4.206,4.206,0,0,1-1.212,1.02,6.034,6.034,0,0,1-1.406.6,10.006,10.006,0,0,1-1.533.276,2.769,2.769,0,0,1,.778,2.177v3.235a.618.618,0,0,0,.187.46.637.637,0,0,0,.591.107,11.272,11.272,0,0,0,5.662-4.255,11.641,11.641,0,0,0,2.191-6.923A11.752,11.752,0,0,0,21.436,11.23Z" transform="translate(0 -5.365)" fill="#cecdcd"/>
</svg>
