<svg xmlns="http://www.w3.org/2000/svg" width="22.978" height="22.978" viewBox="0 0 22.978 22.978">
  <style type="text/css">
  #linkedin2:hover{
   
  fill: #37112E !important;}
      
  </style>
  <path id="linkedin2" d="M11.489,0A11.489,11.489,0,1,0,22.978,11.489,11.49,11.49,0,0,0,11.489,0ZM8.151,17.368h-2.8V8.95h2.8ZM6.752,7.8H6.733A1.458,1.458,0,1,1,6.77,4.892,1.459,1.459,0,1,1,6.752,7.8ZM18.24,17.368h-2.8v-4.5c0-1.132-.405-1.9-1.418-1.9a1.532,1.532,0,0,0-1.436,1.023,1.916,1.916,0,0,0-.092.683v4.7H9.7s.037-7.628,0-8.418h2.8v1.192a2.778,2.778,0,0,1,2.522-1.39c1.841,0,3.221,1.2,3.221,3.789Zm0,0" 
  fill="#cecdcd"
  
  />
</svg>
