<svg xmlns="http://www.w3.org/2000/svg" xmlns:xlink="http://www.w3.org/1999/xlink" width="285.378" height="198.21" viewBox="0 0 285.378 198.21">
  <defs>
    <linearGradient id="linear-gradient" x1="0.619" y1="0.923" x2="0.863" y2="0.851" gradientUnits="objectBoundingBox">
      <stop offset="0" stop-color="#722638"/>
      <stop offset="0" stop-color="#491619"/>
      <stop offset="0" stop-color="#461517"/>
      <stop offset="0" stop-color="#431314"/>
      <stop offset="1" stop-color="#421213"/>
    </linearGradient>
  </defs>
  <g id="Group_6" data-name="Group 6" transform="translate(-147.122 -16.122)">
    <g id="svg_logo" data-name="svg logo" transform="translate(147.122 16.122)">
      <g id="Group_1" data-name="Group 1" transform="translate(176.572 83.734)">
        <path id="Path_2" data-name="Path 2" d="M35.1,98.007a2.9,2.9,0,0,1,1.23-.307,2.954,2.954,0,0,1,1.844.615,2.134,2.134,0,0,1,.769,1.537,2.185,2.185,0,0,1-.307.922l-7.378,15.063a2.421,2.421,0,0,1-1.076,1.076,2.792,2.792,0,0,1-3.074,0,3.591,3.591,0,0,1-1.076-1.076l-7.378-15.063a1.949,1.949,0,0,1-.154-.922,1.892,1.892,0,0,1,.769-1.537,2.954,2.954,0,0,1,1.844-.615,2.9,2.9,0,0,1,1.23.307c.307.154.615.615.922.922l5.38,11.835,5.38-11.835A6.684,6.684,0,0,0,35.1,98.007Z" transform="translate(-18.5 -97.546)" fill="#722638"/>
        <path id="Path_3" data-name="Path 3" d="M36.315,116.759a2.45,2.45,0,0,1-.615-1.844V100.159A2.617,2.617,0,0,1,40,98.315a2.545,2.545,0,0,1,.769,1.844v14.755A2.545,2.545,0,0,1,40,116.759a2.45,2.45,0,0,1-1.844.615A1.977,1.977,0,0,1,36.315,116.759Z" transform="translate(-9.263 -97.546)" fill="#722638"/>
        <path id="Path_4" data-name="Path 4" d="M60.754,115.422a2.134,2.134,0,0,1-.769,1.537,2.311,2.311,0,0,1-1.691.615,2.9,2.9,0,0,1-1.23-.307,1.794,1.794,0,0,1-.922-.922l-3.535-5.226c-.307-.307-.461-.615-.769-.769a2.222,2.222,0,0,0-1.076-.307H48.918v4.918a2.468,2.468,0,1,1-4.918,0V100.206a1.915,1.915,0,0,1,.615-1.691,2.8,2.8,0,0,1,1.691-.615h6.917a8.022,8.022,0,0,1,5.38,1.537,5.473,5.473,0,0,1,1.844,4.457,5.609,5.609,0,0,1-1.23,3.689,5.457,5.457,0,0,1-3.381,2,4.6,4.6,0,0,1,1.537.615,5.869,5.869,0,0,1,1.383,1.383l1.691,2.459A4.488,4.488,0,0,1,60.754,115.422Zm-5.994-9.837a2.244,2.244,0,0,0,0-3.381,4.344,4.344,0,0,0-2.459-.615H48.765V106.2H52.3A6.173,6.173,0,0,0,54.759,105.585Z" transform="translate(-4.806 -97.439)" fill="#722638"/>
        <path id="Path_5" data-name="Path 5" d="M78.489,115.276a2.134,2.134,0,0,1-.769,1.537,2.311,2.311,0,0,1-1.691.615,3.617,3.617,0,0,1-1.23-.307,2.259,2.259,0,0,1-.769-.922l-1.23-2.767H63.887l-1.23,2.767a1.574,1.574,0,0,1-.769.922,2.9,2.9,0,0,1-1.23.307,2.311,2.311,0,0,1-1.691-.615,2.134,2.134,0,0,1-.769-1.537,3.91,3.91,0,0,1,.307-1.076l7.378-15.063a2.422,2.422,0,0,1,1.076-1.076,2.792,2.792,0,0,1,3.074,0,3.591,3.591,0,0,1,1.076,1.076L78.489,114.2Zm-7.224-5.687L68.5,103.441l-2.767,6.148Z" transform="translate(2.82 -97.6)" fill="#722638"/>
      </g>
      <g id="Group_2" data-name="Group 2" transform="translate(182.551 109.858)">
        <path id="Path_6" data-name="Path 6" d="M22.92,128.189a.929.929,0,0,1-.461.922,3.254,3.254,0,0,1-1.076.461,1.152,1.152,0,0,1-.769-.154c-.154-.154-.461-.307-.615-.615l-2.459-3.535a1.2,1.2,0,0,0-.615-.615,1.162,1.162,0,0,0-.615-.154h-1.23v3.228a1.692,1.692,0,1,1-3.381,0v-9.837a1.745,1.745,0,0,1,.461-1.23,1.513,1.513,0,0,1,1.23-.461H18a4.879,4.879,0,0,1,3.535,1.076,3.7,3.7,0,0,1,1.23,2.92A4.252,4.252,0,0,1,22,122.656a4.885,4.885,0,0,1-2.306,1.383,1.4,1.4,0,0,1,1.076.461,2.61,2.61,0,0,1,.922.922l1.076,1.691A3,3,0,0,1,22.92,128.189Zm-4-6.609a1.4,1.4,0,0,0,.461-1.076,1.513,1.513,0,0,0-.461-1.23,2.3,2.3,0,0,0-1.537-.307H15.081v3.074h2.306A2.04,2.04,0,0,0,18.924,121.58Z" transform="translate(-11.7 -116.2)" fill="#411313"/>
        <path id="Path_7" data-name="Path 7" d="M23.674,128.75a8.232,8.232,0,0,1-2.306-2.306,8.515,8.515,0,0,1,0-7.07,4.239,4.239,0,0,1,2.306-2.306,6.121,6.121,0,0,1,3.381-.769,7.825,7.825,0,0,1,3.381.769,8.233,8.233,0,0,1,2.306,2.306,8.515,8.515,0,0,1,0,7.07,4.239,4.239,0,0,1-2.306,2.306,6.121,6.121,0,0,1-3.381.769A8.376,8.376,0,0,1,23.674,128.75Zm5.841-2.92a4.581,4.581,0,0,0,.769-3.074,5.652,5.652,0,0,0-.769-3.074,3.269,3.269,0,0,0-2.306-1.076,2.765,2.765,0,0,0-2.306,1.076,4.582,4.582,0,0,0-.769,3.074,5.652,5.652,0,0,0,.769,3.074,2.586,2.586,0,0,0,2.306,1.076A2.765,2.765,0,0,0,29.515,125.83Z" transform="translate(-6.92 -116.146)" fill="#411313"/>
        <path id="Path_8" data-name="Path 8" d="M43.857,116.728a1.745,1.745,0,0,1,.461,1.23v9.991a1.537,1.537,0,0,1-3.074,0v-5.38l-2.152,3.843a1.664,1.664,0,0,1-.615.769,1.114,1.114,0,0,1-1.537,0,1.535,1.535,0,0,1-.615-.769l-2.152-3.689v5.38a1.537,1.537,0,0,1-3.074,0v-9.991a1.745,1.745,0,0,1,.461-1.23,1.513,1.513,0,0,1,1.23-.461,2.184,2.184,0,0,1,.922.307,1.535,1.535,0,0,1,.615.768l3.381,6.456,3.381-6.456a1.6,1.6,0,0,1,1.537-1.076A1.2,1.2,0,0,1,43.857,116.728Z" transform="translate(-1.282 -116.114)" fill="#411313"/>
        <path id="Path_9" data-name="Path 9" d="M54.926,127.981a1.4,1.4,0,0,1-.461,1.076,1.66,1.66,0,0,1-1.076.461,1.152,1.152,0,0,1-.769-.154,1.2,1.2,0,0,1-.615-.615l-.769-1.844H45.243l-.922,1.844a1.2,1.2,0,0,1-.615.615,1.6,1.6,0,0,1-2.306-1.383.924.924,0,0,1,.154-.615l4.918-9.991a1.852,1.852,0,0,1,.769-.769,2.221,2.221,0,0,1,1.076-.307,2.85,2.85,0,0,1,1.076.307,1.853,1.853,0,0,1,.769.769l4.918,9.991C54.772,127.52,54.926,127.674,54.926,127.981Zm-4.918-3.843-1.844-4.15-1.844,4.15Z" transform="translate(4.25 -116.146)" fill="#411313"/>
        <path id="Path_10" data-name="Path 10" d="M62.913,116.761a1.745,1.745,0,0,1,.461,1.23v9.837a1.745,1.745,0,0,1-.461,1.23,1.4,1.4,0,0,1-1.076.461,1.247,1.247,0,0,1-1.23-.615l-5.533-6.917v5.841a1.745,1.745,0,0,1-.461,1.23,1.4,1.4,0,0,1-1.076.461,1.2,1.2,0,0,1-1.076-.461,1.745,1.745,0,0,1-.461-1.23v-9.837a1.745,1.745,0,0,1,.461-1.23,1.513,1.513,0,0,1,2.306.154l5.533,6.917v-5.841a1.745,1.745,0,0,1,.461-1.23,1.4,1.4,0,0,1,1.076-.461A1.66,1.66,0,0,1,62.913,116.761Z" transform="translate(9.942 -116.146)" fill="#411313"/>
        <path id="Path_11" data-name="Path 11" d="M73.074,127.881a1.537,1.537,0,0,1-2.767.922l-5.226-5.38v4.3a1.692,1.692,0,1,1-3.381,0v-9.837a1.692,1.692,0,1,1,3.381,0v4l5.226-5.226a1.522,1.522,0,1,1,2.152,2.152L68.617,122.5l4.15,4.15A4.751,4.751,0,0,1,73.074,127.881Z" transform="translate(15.151 -116.2)" fill="#411313"/>
        <path id="Path_12" data-name="Path 12" d="M73.274,128.75a8.232,8.232,0,0,1-2.306-2.306,8.515,8.515,0,0,1,0-7.07,4.239,4.239,0,0,1,2.306-2.306,6.121,6.121,0,0,1,3.381-.769,7.825,7.825,0,0,1,3.381.769,8.233,8.233,0,0,1,2.306,2.306,8.515,8.515,0,0,1,0,7.07,4.239,4.239,0,0,1-2.306,2.306,6.121,6.121,0,0,1-3.381.769A7.824,7.824,0,0,1,73.274,128.75Zm5.687-2.92a4.581,4.581,0,0,0,.769-3.074,5.652,5.652,0,0,0-.769-3.074,3.269,3.269,0,0,0-2.306-1.076,2.765,2.765,0,0,0-2.306,1.076,4.582,4.582,0,0,0-.769,3.074,5.652,5.652,0,0,0,.769,3.074,2.586,2.586,0,0,0,2.306,1.076A2.426,2.426,0,0,0,78.961,125.83Z" transform="translate(19.716 -116.146)" fill="#411313"/>
      </g>
      <circle id="Ellipse_1" data-name="Ellipse 1" cx="70.088" cy="70.088" r="70.088" transform="matrix(-0.695, -0.719, 0.719, -0.695, 97.375, 198.21)" fill="url(#linear-gradient)"/>
      <g id="Group_3" data-name="Group 3" transform="translate(95.262 84.042)">
        <path id="Path_15" data-name="Path 15" d="M49.7,46.7Z" transform="translate(-39.556 -29.946)" fill="#fff"/>
        <path id="Path_17" data-name="Path 17" d="M52.2,35.8" transform="translate(-38.213 -35.8)" fill="#fff"/>
        <path id="Path_18" data-name="Path 18" d="M48.2,40" transform="translate(-40.361 -33.544)" fill="#fff"/>
        <path id="Path_19" data-name="Path 19" d="M43.1,52.524,52.322,37" transform="translate(-43.1 -35.156)" fill="#fff"/>
        <path id="Path_20" data-name="Path 20" d="M49.84,46.7Z" transform="translate(-39.542 -29.946)" fill="#fff"/>
      </g>
    </g>
    <g id="Group_5" data-name="Group 5" transform="translate(211.49 89.712)">
      <path id="Path_21" data-name="Path 21" d="M13.833.8H0L21.211,36.766h6.456L36.12,22.779a5.736,5.736,0,0,1-6.609,1.537s-2.306-1.076-4.918-5.533S13.833.8,13.833.8Z" transform="translate(0 0.43)" fill="#fff"/>
      <path id="Path_22" data-name="Path 22" d="M40.825,38.413l13.987.154L43.437,19.2,31.6,22.659Z" transform="translate(16.968 10.311)" fill="#fff"/>
      <g id="Group_4" data-name="Group 4" transform="translate(27.359)">
        <path id="Path_23" data-name="Path 23" d="M27.7,18.724Z" transform="translate(-12.483 10.019)" fill="#fff"/>
        <path id="Path_24" data-name="Path 24" d="M32.094,14.141a11.8,11.8,0,0,1,10.3-6.3,11.681,11.681,0,0,1,0,23.363,11.369,11.369,0,0,1-5.533-1.383l2.92,4.3c.154,0,1.383-.154.769,0,9.376-.615,14.141-6.763,14.141-16.292A17.842,17.842,0,0,0,36.859,0C27.176,0,22.872,8.146,18.876,17.983L17.8,20.75s1.383,4.611,8.146,3.381l6.148-9.991" transform="translate(-17.8)" fill="#fff"/>
        <path id="Path_25" data-name="Path 25" d="M30.2,7.7" transform="translate(-11.141 4.135)" fill="#fff"/>
        <path id="Path_26" data-name="Path 26" d="M26.2,11.9" transform="translate(-13.289 6.391)" fill="#fff"/>
        <path id="Path_27" data-name="Path 27" d="M21.1,24.524,30.322,9" transform="translate(-16.028 4.833)" fill="#fff"/>
        <path id="Path_28" data-name="Path 28" d="M27.7,18.7Z" transform="translate(-12.483 10.042)" fill="#fff"/>
      </g>
      <circle id="Ellipse_3" data-name="Ellipse 3" cx="2.92" cy="2.92" r="2.92" transform="translate(45.65 25.054)" fill="#fff"/>
    </g>
  </g>
</svg>
